<mxfile host="app.diagrams.net" agent="Mozilla/5.0 (Windows NT 10.0; Win64; x64) AppleWebKit/537.36 (KHTML, like Gecko) Chrome/131.0.0.0 Safari/537.36 Edg/131.0.0.0" scale="1" border="0" version="24.9.0">
  <diagram name="Page-1" id="UpjW5AXcCnDORGL84OVY">
    <mxGraphModel grid="1" page="1" gridSize="10" guides="1" tooltips="1" connect="1" arrows="1" fold="1" pageScale="1" pageWidth="850" pageHeight="1100" background="none" math="0" shadow="0">
      <root>
        <mxCell id="0" />
        <mxCell id="1" parent="0" />
        <mxCell id="u_BUc2nW63f5Sk-QwHG3-1" value="Main Menu" style="whiteSpace=wrap;html=1;aspect=fixed;fillColor=#56517E;strokeColor=#EEEEEE;rounded=1;labelBackgroundColor=none;fontColor=#FFFFFF;" vertex="1" parent="1">
          <mxGeometry x="320" y="240" width="200" height="200" as="geometry" />
        </mxCell>
        <mxCell id="u_BUc2nW63f5Sk-QwHG3-50" value="" style="edgeStyle=orthogonalEdgeStyle;rounded=0;orthogonalLoop=1;jettySize=auto;html=1;strokeColor=#182E3E;exitX=1;exitY=0.25;exitDx=0;exitDy=0;entryX=1;entryY=0.5;entryDx=0;entryDy=0;" edge="1" parent="1" source="u_BUc2nW63f5Sk-QwHG3-2" target="u_BUc2nW63f5Sk-QwHG3-1">
          <mxGeometry relative="1" as="geometry">
            <mxPoint x="570" y="340" as="targetPoint" />
            <Array as="points">
              <mxPoint x="640" y="770" />
              <mxPoint x="640" y="340" />
            </Array>
          </mxGeometry>
        </mxCell>
        <mxCell id="u_BUc2nW63f5Sk-QwHG3-2" value="Game Over" style="whiteSpace=wrap;html=1;aspect=fixed;fillColor=#56517E;strokeColor=#EEEEEE;gradientDirection=south;shadow=0;glass=0;rounded=1;labelBackgroundColor=none;fontColor=#FFFFFF;" vertex="1" parent="1">
          <mxGeometry x="320" y="720" width="200" height="200" as="geometry" />
        </mxCell>
        <mxCell id="u_BUc2nW63f5Sk-QwHG3-51" value="" style="endArrow=classic;html=1;rounded=0;strokeColor=#182E3E;exitX=1;exitY=0.75;exitDx=0;exitDy=0;entryX=1;entryY=0.5;entryDx=0;entryDy=0;" edge="1" parent="1" source="u_BUc2nW63f5Sk-QwHG3-2" target="hv92P5cUnz92Fcy1Gnrq-14">
          <mxGeometry width="50" height="50" relative="1" as="geometry">
            <mxPoint x="660" y="760" as="sourcePoint" />
            <mxPoint x="650" y="140" as="targetPoint" />
            <Array as="points">
              <mxPoint x="680" y="870" />
              <mxPoint x="680" y="160" />
            </Array>
          </mxGeometry>
        </mxCell>
        <mxCell id="hv92P5cUnz92Fcy1Gnrq-1" value="Play" style="whiteSpace=wrap;html=1;aspect=fixed;fillColor=#56517E;strokeColor=#EEEEEE;rounded=1;labelBackgroundColor=none;fontColor=#FFFFFF;" vertex="1" parent="1">
          <mxGeometry x="240" y="480" width="80" height="80" as="geometry" />
        </mxCell>
        <mxCell id="hv92P5cUnz92Fcy1Gnrq-3" value="Statistics" style="whiteSpace=wrap;html=1;aspect=fixed;fillColor=#56517E;strokeColor=#EEEEEE;rounded=1;labelBackgroundColor=none;fontColor=#FFFFFF;" vertex="1" parent="1">
          <mxGeometry x="380" y="480" width="80" height="80" as="geometry" />
        </mxCell>
        <mxCell id="hv92P5cUnz92Fcy1Gnrq-5" value="Instructions" style="whiteSpace=wrap;html=1;aspect=fixed;fillColor=#56517E;strokeColor=#EEEEEE;rounded=1;labelBackgroundColor=none;fontColor=#FFFFFF;" vertex="1" parent="1">
          <mxGeometry x="520" y="480" width="80" height="80" as="geometry" />
        </mxCell>
        <mxCell id="hv92P5cUnz92Fcy1Gnrq-7" value="" style="endArrow=classic;html=1;rounded=0;entryX=0.5;entryY=0;entryDx=0;entryDy=0;exitX=0;exitY=0.5;exitDx=0;exitDy=0;" edge="1" parent="1" source="u_BUc2nW63f5Sk-QwHG3-1" target="hv92P5cUnz92Fcy1Gnrq-1">
          <mxGeometry width="50" height="50" relative="1" as="geometry">
            <mxPoint x="190" y="220" as="sourcePoint" />
            <mxPoint x="240" y="170" as="targetPoint" />
            <Array as="points">
              <mxPoint x="280" y="340" />
            </Array>
          </mxGeometry>
        </mxCell>
        <mxCell id="hv92P5cUnz92Fcy1Gnrq-8" value="" style="endArrow=classic;html=1;rounded=0;entryX=0.25;entryY=0;entryDx=0;entryDy=0;exitX=0.4;exitY=0.995;exitDx=0;exitDy=0;exitPerimeter=0;" edge="1" parent="1" source="u_BUc2nW63f5Sk-QwHG3-1" target="hv92P5cUnz92Fcy1Gnrq-3">
          <mxGeometry width="50" height="50" relative="1" as="geometry">
            <mxPoint x="330" y="470" as="sourcePoint" />
            <mxPoint x="380" y="420" as="targetPoint" />
          </mxGeometry>
        </mxCell>
        <mxCell id="hv92P5cUnz92Fcy1Gnrq-9" value="" style="endArrow=classic;html=1;rounded=0;entryX=0.6;entryY=0.99;entryDx=0;entryDy=0;exitX=0.75;exitY=0;exitDx=0;exitDy=0;entryPerimeter=0;" edge="1" parent="1" source="hv92P5cUnz92Fcy1Gnrq-3" target="u_BUc2nW63f5Sk-QwHG3-1">
          <mxGeometry width="50" height="50" relative="1" as="geometry">
            <mxPoint x="350" y="460" as="sourcePoint" />
            <mxPoint x="400" y="410" as="targetPoint" />
          </mxGeometry>
        </mxCell>
        <mxCell id="hv92P5cUnz92Fcy1Gnrq-10" value="" style="endArrow=classic;html=1;rounded=0;entryX=0.25;entryY=0;entryDx=0;entryDy=0;exitX=0.875;exitY=1;exitDx=0;exitDy=0;exitPerimeter=0;" edge="1" parent="1" source="u_BUc2nW63f5Sk-QwHG3-1" target="hv92P5cUnz92Fcy1Gnrq-5">
          <mxGeometry width="50" height="50" relative="1" as="geometry">
            <mxPoint x="500" y="450" as="sourcePoint" />
            <mxPoint x="550" y="400" as="targetPoint" />
          </mxGeometry>
        </mxCell>
        <mxCell id="hv92P5cUnz92Fcy1Gnrq-11" value="" style="endArrow=classic;html=1;rounded=0;exitX=0.75;exitY=0;exitDx=0;exitDy=0;entryX=0.985;entryY=0.925;entryDx=0;entryDy=0;entryPerimeter=0;" edge="1" parent="1" source="hv92P5cUnz92Fcy1Gnrq-5" target="u_BUc2nW63f5Sk-QwHG3-1">
          <mxGeometry width="50" height="50" relative="1" as="geometry">
            <mxPoint x="510" y="450" as="sourcePoint" />
            <mxPoint x="560" y="220" as="targetPoint" />
          </mxGeometry>
        </mxCell>
        <mxCell id="hv92P5cUnz92Fcy1Gnrq-12" value="Start" style="whiteSpace=wrap;html=1;aspect=fixed;fillColor=#56517E;strokeColor=#EEEEEE;rounded=1;labelBackgroundColor=none;fontColor=#FFFFFF;" vertex="1" parent="1">
          <mxGeometry x="280" y="120" width="80" height="80" as="geometry" />
        </mxCell>
        <mxCell id="hv92P5cUnz92Fcy1Gnrq-14" value="Stop" style="whiteSpace=wrap;html=1;aspect=fixed;fillColor=#56517E;strokeColor=#EEEEEE;rounded=1;labelBackgroundColor=none;fontColor=#FFFFFF;" vertex="1" parent="1">
          <mxGeometry x="480" y="120" width="80" height="80" as="geometry" />
        </mxCell>
        <mxCell id="hv92P5cUnz92Fcy1Gnrq-16" value="" style="endArrow=classic;html=1;rounded=0;exitX=0.5;exitY=1;exitDx=0;exitDy=0;entryX=0.5;entryY=0;entryDx=0;entryDy=0;" edge="1" parent="1" source="hv92P5cUnz92Fcy1Gnrq-12" target="u_BUc2nW63f5Sk-QwHG3-1">
          <mxGeometry width="50" height="50" relative="1" as="geometry">
            <mxPoint x="190" y="270" as="sourcePoint" />
            <mxPoint x="240" y="220" as="targetPoint" />
          </mxGeometry>
        </mxCell>
        <mxCell id="hv92P5cUnz92Fcy1Gnrq-17" value="" style="endArrow=classic;html=1;rounded=0;exitX=0.5;exitY=1;exitDx=0;exitDy=0;entryX=0;entryY=0.5;entryDx=0;entryDy=0;" edge="1" parent="1" source="hv92P5cUnz92Fcy1Gnrq-1" target="u_BUc2nW63f5Sk-QwHG3-2">
          <mxGeometry width="50" height="50" relative="1" as="geometry">
            <mxPoint x="130" y="700" as="sourcePoint" />
            <mxPoint x="180" y="650" as="targetPoint" />
            <Array as="points">
              <mxPoint x="280" y="820" />
            </Array>
          </mxGeometry>
        </mxCell>
        <mxCell id="hv92P5cUnz92Fcy1Gnrq-18" value="" style="endArrow=classic;html=1;rounded=0;exitX=0.5;exitY=0;exitDx=0;exitDy=0;entryX=0.5;entryY=1;entryDx=0;entryDy=0;" edge="1" parent="1" source="u_BUc2nW63f5Sk-QwHG3-1" target="hv92P5cUnz92Fcy1Gnrq-14">
          <mxGeometry width="50" height="50" relative="1" as="geometry">
            <mxPoint x="120" y="390" as="sourcePoint" />
            <mxPoint x="170" y="340" as="targetPoint" />
          </mxGeometry>
        </mxCell>
        <mxCell id="hv92P5cUnz92Fcy1Gnrq-19" value="" style="endArrow=classic;html=1;rounded=0;entryX=0.5;entryY=1;entryDx=0;entryDy=0;exitX=0.5;exitY=0;exitDx=0;exitDy=0;" edge="1" parent="1" source="u_BUc2nW63f5Sk-QwHG3-2" target="hv92P5cUnz92Fcy1Gnrq-1">
          <mxGeometry width="50" height="50" relative="1" as="geometry">
            <mxPoint x="140" y="720" as="sourcePoint" />
            <mxPoint x="190" y="670" as="targetPoint" />
          </mxGeometry>
        </mxCell>
      </root>
    </mxGraphModel>
  </diagram>
</mxfile>
